<svg xmlns="http://www.w3.org/2000/svg" width="1877" height="577" viewBox="0 0 1877 577">
  <g id="Group_90621" data-name="Group 90621" transform="translate(158 3744)">
    <g id="Rectangle_154048" data-name="Rectangle 154048" transform="translate(-158 -3744)" fill="#fff" stroke="#707070" stroke-width="1">
      <rect width="1877" height="577" stroke="none"/>
      <rect x="0.5" y="0.5" width="1876" height="576" fill="none"/>
    </g>
    <g id="Group_90620" data-name="Group 90620" transform="translate(28.5 50.876)">
      <path id="Path_163033" data-name="Path 163033" d="M217.5-107C213-81.5,195-68,166-68H103l14-79h62C207.5-147,222.5-132,217.5-107ZM234-245.5c-4,24-22,37-50.5,37H128l13-75h56C225-283.5,238-270,234-245.5Zm68.5,150c7-40-13.5-76-52.5-84.5,36-10,66-37.5,73.5-80,10-55.5-26.5-91-98-91H67.5L5.5,0H169C243,0,292.5-37.5,302.5-95.5Z" transform="translate(-45 -3312)" fill="#4285f4"/>
      <path id="Path_163034" data-name="Path 163034" d="M166-214.5c29,0,49.5,17.5,44.5,51H103C113-196.5,137.5-214.5,166-214.5Zm112.5,122h-91c-9.5,15-25,27-49,27C110.5-65.5,91-83,95-120H288.5a248.871,248.871,0,0,0,6-24.5C309.5-229,261-283,179.5-283c-83,0-150.5,55-166,143.5C-2.5-51,47,4,129,4,198.5,4,255-38,278.5-92.5Z" transform="translate(258 -3312)" fill="#ae1b9e"/>
      <path id="Path_163035" data-name="Path 163035" d="M246.5-82.5c0-86-138.5-75-138.5-116,0-14,14-22.5,33-22.5,25,0,39,13,37.5,33H256c4.5-54-39.5-95-113-95-70,0-116,36.5-116,86,0,91,138,76.5,138,116.5,0,15-17,23-37,23-25,0-40-13-38.5-34H7C-2-35,49.5,4,121.5,4,193,4,246.5-27.5,246.5-82.5Z" transform="translate(538 -3312)" fill="#ea4335"/>
      <path id="Path_163036" data-name="Path 163036" d="M246.5-82.5c0-86-138.5-75-138.5-116,0-14,14-22.5,33-22.5,25,0,39,13,37.5,33H256c4.5-54-39.5-95-113-95-70,0-116,36.5-116,86,0,91,138,76.5,138,116.5,0,15-17,23-37,23-25,0-40-13-38.5-34H7C-2-35,49.5,4,121.5,4,193,4,246.5-27.5,246.5-82.5Z" transform="translate(786 -3312)" fill="#34a853"/>
      <path id="Path_163037" data-name="Path 163037" d="M14,0h86l36.5-208h46L195-279H149l.5-2.5c5-29.5,18.5-39.5,51-37.5L213-391.5C129-396,78-360,64.5-287L63-279H32L19.5-208h31Z" transform="translate(1033 -3312)" fill="#fbbc05"/>
      <path id="Path_163032" data-name="Path 163032" d="M330-279H244.5L217-124c-7.5,36-31.5,55.5-63,55.5-32.5,0-50-21-43-59L137.5-279h-85l-29,163C10.5-41.5,46,3,111,3a121.079,121.079,0,0,0,91-41L195.5,0H281Z" transform="translate(1213 -3312)" fill="#ea4335"/>
    </g>
  </g>
</svg>
