<svg xmlns="http://www.w3.org/2000/svg" width="20" height="20" viewBox="0 0 219.156 219.158">
  <g id="Group_88164" data-name="Group 88164" transform="translate(4865.001 756)">
    <g id="Group_88163" data-name="Group 88163" transform="translate(-4853.923 -749.845)">
      <path id="Path_158490" data-name="Path 158490" d="M106.632,157.313,72.976,99.15H57.137l34.136,59.033h14.848L96.133,175.4,59.957,112.889H44.119L84.974,183.44h22.347l26.217-45.265H117.7Z" transform="translate(9.755 22.906)" fill="#fef200"/>
      <path id="Path_158491" data-name="Path 158491" d="M39.747,141.932,73.283,83.709,65.364,70,31.318,129.094l7.439,12.838-19.918-.03L54.865,79.33,46.946,65.621,6.3,136.263l7.919,13.709,3.24,5.639,52.314.06-7.919-13.709Z" transform="translate(1.018 15.16)" fill="#fef200"/>
      <path id="Path_158492" data-name="Path 158492" d="M34.372,90.2,23.333,71.031l67.192-.06,7.889-13.708-68.182.06L22.823,70.161,12.894,52.913l72.232-.12,7.919-13.708-81.531.12-3.24,5.639L.355,58.553l26.1,45.355Z" transform="translate(-0.355 9.029)" fill="#fef200"/>
      <path id="Path_158493" data-name="Path 158493" d="M71.056,26.127,104.682,84.29H120.52L86.384,25.257H71.536L81.525,8.039,117.7,70.522h15.838L92.683,0H70.336L44.119,45.265H59.957Z" transform="translate(9.755)" fill="#fef200"/>
      <path id="Path_158494" data-name="Path 158494" d="M133.7,42.565l-33.535,58.223,7.918,13.708,34.046-59.063L134.72,42.565l19.887.03-36.026,62.6,7.919,13.709,40.646-70.642-7.89-13.708-3.27-5.639-52.314-.09,7.918,13.708Z" transform="translate(22.702 6.66)" fill="#fef200"/>
      <path id="Path_158495" data-name="Path 158495" d="M178.923,121.2l-26.1-45.325-7.89,13.708,11.04,19.167-67.193.06-7.919,13.709,68.183-.06,7.408-12.838,9.929,17.248-72.232.09-7.889,13.709,81.5-.119,3.27-5.639Z" transform="translate(18.244 17.53)" fill="#fef200"/>
    </g>
    <path id="Path_158496" data-name="Path 158496" d="M122.635,232.35A109.579,109.579,0,1,1,232.214,122.771,109.7,109.7,0,0,1,122.635,232.35Zm0-210.706A101.127,101.127,0,1,0,223.761,122.771,101.252,101.252,0,0,0,122.635,21.644Z" transform="translate(-4878.058 -769.192)" fill="#fef200"/>
  </g>
</svg>
