<svg xmlns="http://www.w3.org/2000/svg" width="131.482" height="35.35" viewBox="0 0 131.482 35.35">
  <path id="Path_158486" data-name="Path 158486" d="M15.938-12.74a3.881,3.881,0,0,1-.221,1.352,3.6,3.6,0,0,1-.611,1.066,4.642,4.642,0,0,1-.91.832,9.046,9.046,0,0,1-1.144.676,4.623,4.623,0,0,1,.676.325,3.2,3.2,0,0,1,.754.611,3.216,3.216,0,0,1,.611,1,4,4,0,0,1,.247,1.495,4.757,4.757,0,0,1-.494,2.158,4.727,4.727,0,0,1-1.469,1.7A7.46,7.46,0,0,1,10.985-.4,11.961,11.961,0,0,1,7.722,0H0L3.51-16.51h6.838a14.23,14.23,0,0,1,2.015.143,5.509,5.509,0,0,1,1.794.559,3.446,3.446,0,0,1,1.287,1.157A3.382,3.382,0,0,1,15.938-12.74ZM8.866-9.594a1.467,1.467,0,0,0,.975-.338,2.686,2.686,0,0,0,.663-.845,4.54,4.54,0,0,0,.39-1.092,4.9,4.9,0,0,0,.13-1.053,2.288,2.288,0,0,0-.351-1.287,1.228,1.228,0,0,0-1.1-.533h-.78L7.67-9.594ZM6.994-1.638a1.937,1.937,0,0,0,1.3-.442,3.583,3.583,0,0,0,.858-1.092,5.122,5.122,0,0,0,.481-1.365A6.526,6.526,0,0,0,9.776-5.8,2.456,2.456,0,0,0,9.4-7.241,1.378,1.378,0,0,0,8.19-7.774H7.228L5.954-1.638ZM19.682-16.51H30.628l-.416,1.976h-5.3L23.816-9.516h4.446l-.416,1.95H23.4L22.2-2h5.3l-.39,2H16.172Zm19.682,4.784a5.7,5.7,0,0,0,.078-1.066,5.607,5.607,0,0,0-.052-.767,2.571,2.571,0,0,0-.182-.676,1.036,1.036,0,0,0-.39-.468,1.221,1.221,0,0,0-.676-.169,1.794,1.794,0,0,0-.858.208,2.578,2.578,0,0,0-.689.533,2.4,2.4,0,0,0-.468.754,2.425,2.425,0,0,0-.169.9,1.438,1.438,0,0,0,.351,1.04,2.659,2.659,0,0,0,.923.6,7.7,7.7,0,0,0,1.3.39q.728.156,1.508.364a9.765,9.765,0,0,1,1.3.468,4.019,4.019,0,0,1,1.157.767A3.516,3.516,0,0,1,43.316-7.6a5.1,5.1,0,0,1,.312,1.911,5.4,5.4,0,0,1-.65,2.756,5.152,5.152,0,0,1-1.794,1.82A8.207,8.207,0,0,1,38.467-.1a17.585,17.585,0,0,1-3.419.312,15.422,15.422,0,0,1-3.055-.247,10.414,10.414,0,0,1-1.859-.533,3.249,3.249,0,0,1-1.2-.78l.884-3.562H34.4q-.026.234-.052.637t-.026.637a2.889,2.889,0,0,0,.078.65,2.183,2.183,0,0,0,.247.624,1.313,1.313,0,0,0,.481.468,1.528,1.528,0,0,0,.78.182,1.8,1.8,0,0,0,.923-.234,2.324,2.324,0,0,0,.676-.585,2.6,2.6,0,0,0,.416-.78,2.661,2.661,0,0,0,.143-.845,1.636,1.636,0,0,0-.273-.962,2.3,2.3,0,0,0-.741-.663,5.39,5.39,0,0,0-1.079-.468l-1.261-.4Q34.086-6.838,33.4-7.1a4.472,4.472,0,0,1-1.261-.728,3.787,3.787,0,0,1-.949-1.183,3.916,3.916,0,0,1-.377-1.833,4.538,4.538,0,0,1,.845-2.8,6.519,6.519,0,0,1,2.132-1.833,9.744,9.744,0,0,1,2.821-1,15.24,15.24,0,0,1,2.912-.3,10.137,10.137,0,0,1,3.133.429,5.963,5.963,0,0,1,1.989,1l-.962,3.614Zm15.262,0a5.7,5.7,0,0,0,.078-1.066,5.607,5.607,0,0,0-.052-.767,2.571,2.571,0,0,0-.182-.676,1.036,1.036,0,0,0-.39-.468,1.221,1.221,0,0,0-.676-.169,1.794,1.794,0,0,0-.858.208,2.578,2.578,0,0,0-.689.533,2.4,2.4,0,0,0-.468.754,2.425,2.425,0,0,0-.169.9,1.438,1.438,0,0,0,.351,1.04,2.659,2.659,0,0,0,.923.6,7.7,7.7,0,0,0,1.3.39q.728.156,1.508.364a9.765,9.765,0,0,1,1.3.468,4.019,4.019,0,0,1,1.157.767A3.516,3.516,0,0,1,58.578-7.6a5.1,5.1,0,0,1,.312,1.911,5.4,5.4,0,0,1-.65,2.756,5.152,5.152,0,0,1-1.794,1.82A8.207,8.207,0,0,1,53.729-.1,17.585,17.585,0,0,1,50.31.208a15.422,15.422,0,0,1-3.055-.247A10.414,10.414,0,0,1,45.4-.572a3.249,3.249,0,0,1-1.2-.78l.884-3.562H49.66q-.026.234-.052.637t-.026.637a2.89,2.89,0,0,0,.078.65,2.183,2.183,0,0,0,.247.624,1.313,1.313,0,0,0,.481.468,1.528,1.528,0,0,0,.78.182,1.8,1.8,0,0,0,.923-.234,2.324,2.324,0,0,0,.676-.585,2.6,2.6,0,0,0,.416-.78,2.661,2.661,0,0,0,.143-.845,1.636,1.636,0,0,0-.273-.962,2.3,2.3,0,0,0-.741-.663,5.39,5.39,0,0,0-1.079-.468l-1.261-.4q-.624-.182-1.313-.442A4.472,4.472,0,0,1,47.4-7.826a3.787,3.787,0,0,1-.949-1.183,3.916,3.916,0,0,1-.377-1.833,4.538,4.538,0,0,1,.845-2.8,6.519,6.519,0,0,1,2.132-1.833,9.744,9.744,0,0,1,2.821-1,15.24,15.24,0,0,1,2.912-.3,10.137,10.137,0,0,1,3.133.429,5.963,5.963,0,0,1,1.989,1l-.962,3.614Zm8.528-4.784H74.1l-.416,1.976h-5.33L67.34-9.776h4.446l-.416,2H66.924L65.26,0H59.644ZM79.352-5.9q-.13.572-.208.988a4.244,4.244,0,0,0-.078.78A1.821,1.821,0,0,0,79.7-2.678a2.828,2.828,0,0,0,1.885.546,3.162,3.162,0,0,0,1.495-.312,2.793,2.793,0,0,0,.962-.832,4.3,4.3,0,0,0,.6-1.2A13.222,13.222,0,0,0,85.02-5.9L87.23-16.51H89.6L87.334-5.85a11.2,11.2,0,0,1-.754,2.34,5.776,5.776,0,0,1-1.417,1.924A6.587,6.587,0,0,1,82.784-.273,11.656,11.656,0,0,1,79.17.208a7.953,7.953,0,0,1-4.42-.975,3.383,3.383,0,0,1-1.43-3,14.613,14.613,0,0,1,.234-2.314q.234-1.4.6-3.042l1.586-7.384h5.9Z" transform="translate(41.886 25.77)" fill="#fef200"/>
  <g id="Group_88165" data-name="Group 88165" transform="translate(5007.804 672.701)">
    <g id="Group_88163" data-name="Group 88163" transform="translate(-5006.017 -671.708)">
      <path id="Path_158490" data-name="Path 158490" d="M54.2,108.532,48.773,99.15H46.219l5.506,9.522h2.4l-1.611,2.777-5.835-10.083H44.119l6.59,11.38h3.6l4.229-7.3H55.987Z" transform="translate(-35.429 -79.463)" fill="#fef200"/>
      <path id="Path_158491" data-name="Path 158491" d="M11.7,77.93,17.1,68.539l-1.277-2.211-5.492,9.532,1.2,2.071-3.213,0,5.811-10.093-1.277-2.211L6.3,77.015l1.277,2.211.523.91,8.438.01-1.277-2.211Z" transform="translate(-5.12 -52.591)" fill="#fef200"/>
      <path id="Path_158492" data-name="Path 158492" d="M5.842,47.33,4.062,44.238l10.838-.01,1.272-2.211-11,.01L3.979,44.1l-1.6-2.782L14.029,41.3l1.277-2.211L2.155,39.1l-.523.91L.355,42.225l4.209,7.316Z" transform="translate(-0.355 -31.324)" fill="#fef200"/>
      <path id="Path_158493" data-name="Path 158493" d="M48.464,4.214,53.888,13.6h2.555L50.936,4.074h-2.4L50.152,1.3l5.835,10.078h2.555L51.952,0h-3.6L44.119,7.3h2.555Z" transform="translate(-35.429)" fill="#fef200"/>
      <path id="Path_158494" data-name="Path 158494" d="M105.573,31.043l-5.409,9.391,1.277,2.211,5.492-9.527-1.195-2.076,3.208,0-5.811,10.1,1.277,2.211,6.556-11.394L109.7,29.751l-.527-.91-8.438-.015,1.277,2.211Z" transform="translate(-80.346 -23.103)" fill="#fef200"/>
      <path id="Path_158495" data-name="Path 158495" d="M96.681,83.191,92.472,75.88,91.2,78.091l1.781,3.092-10.838.01L80.865,83.4l11-.01,1.195-2.071,1.6,2.782-11.651.014-1.272,2.211,13.146-.019.527-.91Z" transform="translate(-64.879 -60.813)" fill="#fef200"/>
    </g>
    <g id="Group_88164" data-name="Group 88164" transform="translate(-5007.804 -672.701)">
      <path id="Path_158496" data-name="Path 158496" d="M30.732,48.542A17.675,17.675,0,1,1,48.406,30.867,17.694,17.694,0,0,1,30.732,48.542Zm0-33.986A16.312,16.312,0,1,0,47.043,30.867,16.332,16.332,0,0,0,30.732,14.556Z" transform="translate(-13.057 -13.192)" fill="#fef200"/>
    </g>
  </g>
</svg>
