<svg xmlns="http://www.w3.org/2000/svg" xmlns:xlink="http://www.w3.org/1999/xlink" width="3391.538" height="952.032" viewBox="0 0 3391.538 952.032">
  <defs>
    <linearGradient id="linear-gradient" x1="0.299" y1="0.137" x2="0.78" y2="0.234" gradientUnits="objectBoundingBox">
      <stop offset="0" stop-color="#e7b506"/>
      <stop offset="1" stop-color="#a98403"/>
    </linearGradient>
    <linearGradient id="linear-gradient-2" x1="0.5" x2="0.5" y2="1" gradientUnits="objectBoundingBox">
      <stop offset="0" stop-color="#e7b506"/>
      <stop offset="1" stop-color="#745b03"/>
    </linearGradient>
    <filter id="Path_1059">
      <feOffset input="SourceAlpha"/>
      <feGaussianBlur stdDeviation="10.5" result="blur"/>
      <feFlood flood-color="#060606" flood-opacity="0.051" result="color"/>
      <feComposite operator="out" in="SourceGraphic" in2="blur"/>
      <feComposite operator="in" in="color"/>
      <feComposite operator="in" in2="SourceGraphic"/>
    </filter>
    <filter id="Ellipse_446">
      <feOffset input="SourceAlpha"/>
      <feGaussianBlur stdDeviation="10.5" result="blur-2"/>
      <feFlood flood-color="#060606" flood-opacity="0.051" result="color-2"/>
      <feComposite operator="out" in="SourceGraphic" in2="blur-2"/>
      <feComposite operator="in" in="color-2"/>
      <feComposite operator="in" in2="SourceGraphic"/>
    </filter>
    <filter id="Ellipse_447">
      <feOffset input="SourceAlpha"/>
      <feGaussianBlur stdDeviation="10.5" result="blur-3"/>
      <feFlood flood-color="#060606" flood-opacity="0.051" result="color-3"/>
      <feComposite operator="out" in="SourceGraphic" in2="blur-3"/>
      <feComposite operator="in" in="color-3"/>
      <feComposite operator="in" in2="SourceGraphic"/>
    </filter>
    <filter id="Ellipse_448">
      <feOffset input="SourceAlpha"/>
      <feGaussianBlur stdDeviation="10.5" result="blur-4"/>
      <feFlood flood-color="#060606" flood-opacity="0.051" result="color-4"/>
      <feComposite operator="out" in="SourceGraphic" in2="blur-4"/>
      <feComposite operator="in" in="color-4"/>
      <feComposite operator="in" in2="SourceGraphic"/>
    </filter>
  </defs>
  <g id="Group_89716" data-name="Group 89716" transform="translate(6129.581 14115.358)">
    <g id="Group_89715" data-name="Group 89715" transform="translate(525.422 152)">
      <path id="Path_1054" data-name="Path 1054" d="M454.144,0C704.2,0,906.91,81.432,906.91,181.883c0,37.267,5.348-30.55-42.621-64.764C783.231,59.305,629.06,20.247,471.774,20.247c-129.279,0-318.529,29.941-405.608,83.747C-15.134,154.23,1.378,230.4,1.378,181.883,1.378,81.432,204.088,0,454.144,0Z" transform="matrix(-0.5, -0.866, 0.866, -0.5, -6117.689, -13315.326)" fill="url(#linear-gradient)"/>
      <path id="Path_1051" data-name="Path 1051" d="M464.022,0C719.784,0,927.6,46.47,927.6,92.945c0,17.242,5.47-14.134-43.594-29.964-82.907-26.749-240.6-44.82-401.47-44.82-132.229,0-325.8,13.853-414.863,38.747C-15.479,80.151,1.409,115.393,1.409,92.945,1.409,46.47,208.261,0,464.022,0Z" transform="matrix(0.995, 0.105, -0.105, 0.995, -6627.091, -13968.703)" fill="url(#linear-gradient-2)"/>
      <path id="Path_1049" data-name="Path 1049" d="M453.068,0C702.532,0,904.762,49.186,904.762,109.86c0,22.51,5.335-18.452-42.52-39.118C781.377,35.821,627.57,12.229,470.657,12.229c-128.973,0-317.775,18.085-404.648,50.585C-15.1,93.157,1.374,139.166,1.374,109.86,1.374,49.186,203.6,0,453.068,0Z" transform="translate(-5760.113 -14036.58) rotate(130)" fill="url(#linear-gradient-2)"/>
      <g id="Path_1061" data-name="Path 1061" transform="translate(-6487.423 -14095.885)" fill="#ffe00e">
        <path d="M 301.9231567382812 593.3463134765625 C 141.2319030761719 593.3463134765625 10.49999046325684 462.6144104003906 10.49999046325684 301.9231567382812 C 10.49999046325684 141.2319030761719 141.2319030761719 10.49999046325684 301.9231567382812 10.49999046325684 C 462.6144104003906 10.49999046325684 593.3463134765625 141.2319030761719 593.3463134765625 301.9231567382812 C 593.3463134765625 462.6144104003906 462.6144104003906 593.3463134765625 301.9231567382812 593.3463134765625 Z" stroke="none"/>
        <path d="M 301.9231567382812 20.99993896484375 C 147.0215454101562 20.99993896484375 20.99993896484375 147.0215454101562 20.99993896484375 301.9231567382812 C 20.99993896484375 456.8246459960938 147.0215454101562 582.8462524414062 301.9231567382812 582.8462524414062 C 456.8246459960938 582.8462524414062 582.8462524414062 456.8246459960938 582.8462524414062 301.9231567382812 C 582.8462524414062 147.0215454101562 456.8246459960938 20.99993896484375 301.9231567382812 20.99993896484375 M 301.9231567382812 -6.103515625e-05 C 468.670654296875 -6.103515625e-05 603.8462524414062 135.1755676269531 603.8462524414062 301.9231567382812 C 603.8462524414062 468.670654296875 468.670654296875 603.8462524414062 301.9231567382812 603.8462524414062 C 135.1755676269531 603.8462524414062 -6.103515625e-05 468.670654296875 -6.103515625e-05 301.9231567382812 C -6.103515625e-05 135.1755676269531 135.1755676269531 -6.103515625e-05 301.9231567382812 -6.103515625e-05 Z" stroke="none" fill="#ffed49"/>
      </g>
      <g data-type="innerShadowGroup">
        <g id="Path_1059-2" data-name="Path 1059" transform="translate(-6313.489 -13921.95)" fill="#ffed49">
          <path d="M 127.9891586303711 234.9783172607422 C 68.99515533447266 234.9783172607422 21 186.983154296875 21 127.9891586303711 C 21 68.99515533447266 68.99515533447266 21 127.9891586303711 21 C 186.983154296875 21 234.9783172607422 68.99515533447266 234.9783172607422 127.9891586303711 C 234.9783172607422 186.983154296875 186.983154296875 234.9783172607422 127.9891586303711 234.9783172607422 Z" stroke="none"/>
          <path d="M 127.9891586303711 42 C 80.57453918457031 42 42 80.57453918457031 42 127.9891586303711 C 42 175.4037780761719 80.57453918457031 213.9783172607422 127.9891586303711 213.9783172607422 C 175.4037780761719 213.9783172607422 213.9783172607422 175.4037780761719 213.9783172607422 127.9891586303711 C 213.9783172607422 80.57453918457031 175.4037780761719 42 127.9891586303711 42 M 127.9891586303711 0 C 198.6756286621094 0 255.9783172607422 57.30270385742188 255.9783172607422 127.9891586303711 C 255.9783172607422 198.6756286621094 198.6756286621094 255.9783172607422 127.9891586303711 255.9783172607422 C 57.30270385742188 255.9783172607422 0 198.6756286621094 0 127.9891586303711 C 0 57.30270385742188 57.30270385742188 0 127.9891586303711 0 Z" stroke="none"/>
        </g>
        <g transform="matrix(1, 0, 0, 1, -6655, -14267.36)" filter="url(#Path_1059)">
          <g id="Path_1059-3" data-name="Path 1059" transform="translate(341.51 345.41)" fill="#fff">
            <path d="M 127.9891586303711 234.9783172607422 C 68.99515533447266 234.9783172607422 21 186.983154296875 21 127.9891586303711 C 21 68.99515533447266 68.99515533447266 21 127.9891586303711 21 C 186.983154296875 21 234.9783172607422 68.99515533447266 234.9783172607422 127.9891586303711 C 234.9783172607422 186.983154296875 186.983154296875 234.9783172607422 127.9891586303711 234.9783172607422 Z" stroke="none"/>
            <path d="M 127.9891586303711 42 C 80.57453918457031 42 42 80.57453918457031 42 127.9891586303711 C 42 175.4037780761719 80.57453918457031 213.9783172607422 127.9891586303711 213.9783172607422 C 175.4037780761719 213.9783172607422 213.9783172607422 175.4037780761719 213.9783172607422 127.9891586303711 C 213.9783172607422 80.57453918457031 175.4037780761719 42 127.9891586303711 42 M 127.9891586303711 0 C 198.6756286621094 0 255.9783172607422 57.30270385742188 255.9783172607422 127.9891586303711 C 255.9783172607422 198.6756286621094 198.6756286621094 255.9783172607422 127.9891586303711 255.9783172607422 C 57.30270385742188 255.9783172607422 0 198.6756286621094 0 127.9891586303711 C 0 57.30270385742188 57.30270385742188 0 127.9891586303711 0 Z" stroke="none"/>
          </g>
        </g>
        <g id="Path_1059-4" data-name="Path 1059" transform="translate(-6313.489 -13921.95)" fill="none">
          <path d="M 127.9891586303711 234.9783172607422 C 68.99515533447266 234.9783172607422 21 186.983154296875 21 127.9891586303711 C 21 68.99515533447266 68.99515533447266 21 127.9891586303711 21 C 186.983154296875 21 234.9783172607422 68.99515533447266 234.9783172607422 127.9891586303711 C 234.9783172607422 186.983154296875 186.983154296875 234.9783172607422 127.9891586303711 234.9783172607422 Z" stroke="none"/>
          <path d="M 127.9891586303711 42 C 80.57453918457031 42 42 80.57453918457031 42 127.9891586303711 C 42 175.4037780761719 80.57453918457031 213.9783172607422 127.9891586303711 213.9783172607422 C 175.4037780761719 213.9783172607422 213.9783172607422 175.4037780761719 213.9783172607422 127.9891586303711 C 213.9783172607422 80.57453918457031 175.4037780761719 42 127.9891586303711 42 M 127.9891586303711 0 C 198.6756286621094 0 255.9783172607422 57.30270385742188 255.9783172607422 127.9891586303711 C 255.9783172607422 198.6756286621094 198.6756286621094 255.9783172607422 127.9891586303711 255.9783172607422 C 57.30270385742188 255.9783172607422 0 198.6756286621094 0 127.9891586303711 C 0 57.30270385742188 57.30270385742188 0 127.9891586303711 0 Z" stroke="none" fill="#ffed49"/>
        </g>
      </g>
      <path id="Path_1050" data-name="Path 1050" d="M456.693,0C708.153,0,912,80.753,912,180.368c0,36.957,5.378-30.3-42.86-64.224-81.512-57.332-236.55-96.066-394.718-96.066-130,0-320.318,29.691-407.885,83.05-81.756,49.818-65.152,125.354-65.152,77.24C1.385,80.753,205.234,0,456.693,0Z" transform="matrix(0.656, -0.755, 0.755, 0.656, -6593.653, -13552.127)" fill="url(#linear-gradient)"/>
      <path id="Path_1052" data-name="Path 1052" d="M466.161,0C722.834,0,930.909,71.914,930.909,160.623c0,32.911,5.489-26.979-43.749-57.194-83.2-51.056-241.454-85.55-402.9-85.55-132.7,0-326.958,26.441-416.341,73.958-83.451,44.364-66.5,111.632-66.5,68.785C1.414,71.914,209.489,0,466.161,0Z" transform="matrix(-0.996, -0.087, 0.087, -0.996, -5727.455, -13604.461)" fill="url(#linear-gradient)"/>
      <path id="Path_1053" data-name="Path 1053" d="M453.828,0C703.71,0,906.279,65.025,906.279,145.238c0,29.759,5.344-24.395-42.592-51.715-81-46.166-235.065-77.355-392.241-77.355-129.189,0-318.308,23.908-405.326,66.874-81.243,40.115-64.744,100.939-64.744,62.2C1.377,65.025,203.946,0,453.828,0Z" transform="translate(-6285.579 -14267.358) rotate(60)" fill="url(#linear-gradient-2)"/>
      <g data-type="innerShadowGroup">
        <circle id="Ellipse_446-2" data-name="Ellipse 446" cx="32.818" cy="32.818" r="32.818" transform="translate(-6571.436 -13772.302)" fill="#ffed49"/>
        <g transform="matrix(1, 0, 0, 1, -6655, -14267.36)" filter="url(#Ellipse_446)">
          <circle id="Ellipse_446-3" data-name="Ellipse 446" cx="32.818" cy="32.818" r="32.818" transform="translate(83.57 495.06)" fill="#fff"/>
        </g>
        <g id="Ellipse_446-4" data-name="Ellipse 446" transform="translate(-6571.436 -13772.302)" fill="none" stroke="#fff" stroke-width="8">
          <circle cx="32.818" cy="32.818" r="32.818" stroke="none"/>
          <circle cx="32.818" cy="32.818" r="28.818" fill="none"/>
        </g>
      </g>
      <g data-type="innerShadowGroup">
        <circle id="Ellipse_447-2" data-name="Ellipse 447" cx="32.818" cy="32.818" r="32.818" transform="translate(-5966.277 -13558.33)" fill="#ffed49"/>
        <g transform="matrix(1, 0, 0, 1, -6655, -14267.36)" filter="url(#Ellipse_447)">
          <circle id="Ellipse_447-3" data-name="Ellipse 447" cx="32.818" cy="32.818" r="32.818" transform="translate(688.73 709.03)" fill="#fff"/>
        </g>
        <g id="Ellipse_447-4" data-name="Ellipse 447" transform="translate(-5966.277 -13558.33)" fill="none" stroke="#fff" stroke-width="8">
          <circle cx="32.818" cy="32.818" r="32.818" stroke="none"/>
          <circle cx="32.818" cy="32.818" r="28.818" fill="none"/>
        </g>
      </g>
      <g data-type="innerShadowGroup">
        <circle id="Ellipse_448-2" data-name="Ellipse 448" cx="32.818" cy="32.818" r="32.818" transform="translate(-6057.51 -14145.111)" fill="#ffed49"/>
        <g transform="matrix(1, 0, 0, 1, -6655, -14267.36)" filter="url(#Ellipse_448)">
          <circle id="Ellipse_448-3" data-name="Ellipse 448" cx="32.818" cy="32.818" r="32.818" transform="translate(597.49 122.25)" fill="#fff"/>
        </g>
        <g id="Ellipse_448-4" data-name="Ellipse 448" transform="translate(-6057.51 -14145.111)" fill="none" stroke="#fff" stroke-width="8">
          <circle cx="32.818" cy="32.818" r="32.818" stroke="none"/>
          <circle cx="32.818" cy="32.818" r="28.818" fill="none"/>
        </g>
      </g>
    </g>
    <path id="Path_1058" data-name="Path 1058" d="M62.227,136.162c38.985,0,65.555-18.356,65.555-49.293,0-23.306-21.852-30.319-48.421-43.518C66.2,36.956,63.717,32.625,63.717,28.294c-.248-5.775,5.463-9.9,13.409-9.9,7.449,0,15.4,1.856,25.08,12.169L133.741,8.7C121.574-7.181,99.226-14.4,78.367-14.4,44.1-14.4,16.785,3.75,16.785,32.625c0,24.75,22.6,34.444,43.207,44.55C75.884,84.806,80.85,87.487,80.85,92.643c0,5.569-5.711,10.519-17.63,10.519-10.181,0-22.845-5.362-31.536-16.706L-.1,109.143C15.544,129.355,40.872,136.162,62.227,136.162Zm266.192,0c60.092,0,94.111-39.806,94.111-88.687,0-39.187-29.053-61.875-72.259-61.875-57.609,0-93.863,41.25-93.863,88.068C256.408,113.474,284.964,136.162,328.419,136.162ZM331.9,101.1c-15.892,0-28.8-9.281-28.8-30.112,0-26.4,18.624-50.531,43.207-50.531,16.389,0,29.3,8.869,29.3,29.494C375.6,79.237,357.72,101.1,331.9,101.1Zm212.557,33H650.979l4.718-33.206H594.612L611.248-12.338H566.055Zm301.453,2.062c43.207,0,68.783-15.675,75.736-62.493L934.3-12.338h-44.7L876.944,72.431c-3.228,22.275-13.409,28.875-26.818,28.875-17.879,0-20.114-13.406-17.63-30.319l12.167-83.325H799.719L787.8,67.068C781.344,109.762,796.987,136.162,845.905,136.162Zm234.656-2.062h44.945l16.637-113.231h39.234l4.966-33.206H1062.931l-4.966,33.206H1097.2Zm215.785,0h45.69l21.6-146.437h-45.69Zm262.468,2.062c60.092,0,94.111-39.806,94.111-88.687,0-39.187-29.053-61.875-72.259-61.875-57.609,0-93.863,41.25-93.863,88.068C1486.8,113.474,1515.359,136.162,1558.814,136.162Zm3.476-35.062c-15.892,0-28.8-9.281-28.8-30.112,0-26.4,18.623-50.531,43.206-50.531,16.389,0,29.3,8.869,29.3,29.494C1605.993,79.237,1588.115,101.1,1562.29,101.1Zm212.557,33h43.207l12.168-80.643.745-.206L1870.2,134.1h42.71l21.852-146.437h-43.455l-12.167,83.118-.745.206-40.972-83.325H1796.45Zm332.244,2.062c38.985,0,65.554-18.356,65.554-49.293,0-23.306-21.851-30.319-48.421-43.518-13.16-6.394-15.644-10.725-15.644-15.056-.248-5.775,5.463-9.9,13.409-9.9,7.45,0,15.4,1.856,25.08,12.169L2178.605,8.7c-12.167-15.881-34.516-23.1-55.374-23.1-34.267,0-61.582,18.15-61.582,47.025,0,24.75,22.6,34.444,43.207,44.55,15.892,7.631,20.858,10.312,20.858,15.469,0,5.569-5.711,10.519-17.631,10.519-10.181,0-22.845-5.362-31.535-16.706l-31.785,22.687C2060.408,129.355,2085.736,136.162,2107.091,136.162Z" transform="translate(-5114.4 -13376.207)" fill="#84889a"/>
    <path id="Path_158486" data-name="Path 158486" d="M422.723,94.367a110.434,110.434,0,0,1-5.862,37.2A100.054,100.054,0,0,1,400.656,160.9,124.918,124.918,0,0,1,376.52,183.8a238.165,238.165,0,0,1-30.342,18.6,120.744,120.744,0,0,1,17.93,8.943,85.557,85.557,0,0,1,20,16.813,89.144,89.144,0,0,1,16.206,27.517,113.8,113.8,0,0,1,6.551,41.139,134.969,134.969,0,0,1-13.1,59.383,128.833,128.833,0,0,1-38.962,46.78,194.755,194.755,0,0,1-63.443,30.957,306.4,306.4,0,0,1-86.544,11.007H0L93.1-9.373H274.46a364.278,364.278,0,0,1,53.515,3.946A142.332,142.332,0,0,1,375.486,9.944a92.652,92.652,0,0,1,34.135,31.838,95.779,95.779,0,0,1,13.1,52.586Zm-187.57,86.57a38.036,38.036,0,0,0,25.86-9.3A73.579,73.579,0,0,0,278.6,148.384a128.024,128.024,0,0,0,10.344-30.049,139.641,139.641,0,0,0,3.448-28.976,64.752,64.752,0,0,0-9.31-35.415A32.175,32.175,0,0,0,253.9,39.278H233.216L203.431,180.937ZM185.5,399.865a50.2,50.2,0,0,0,34.48-12.163,98.145,98.145,0,0,0,22.757-30.049A144.473,144.473,0,0,0,255.5,320.092a186.029,186.029,0,0,0,3.793-34.754,69.538,69.538,0,0,0-9.973-39.653,35.995,35.995,0,0,0-32.093-14.667H191.708l-33.79,168.847ZM522.025-9.373h290.32L801.312,45H660.74L631.671,183.083H749.592l-11.034,53.659H620.637L588.81,389.9H729.381l-10.344,55.035H428.929ZM1044.05,122.27a162.6,162.6,0,0,0,2.069-29.334,159.949,159.949,0,0,0-1.379-21.106,72.854,72.854,0,0,0-4.827-18.6,28.285,28.285,0,0,0-10.344-12.878,31.468,31.468,0,0,0-17.93-4.65,46.2,46.2,0,0,0-22.757,5.724,68.763,68.763,0,0,0-18.274,14.667A66.483,66.483,0,0,0,958.2,76.839a68.942,68.942,0,0,0-4.482,24.766,40.519,40.519,0,0,0,9.31,28.618,70.323,70.323,0,0,0,24.481,16.51,198.73,198.73,0,0,0,34.48,10.732q19.309,4.293,40,10.016a252.94,252.94,0,0,1,34.48,12.878,106.38,106.38,0,0,1,30.687,21.106,97.144,97.144,0,0,1,21.722,34.342,145.106,145.106,0,0,1,8.275,52.586,153.131,153.131,0,0,1-17.24,75.838,139.426,139.426,0,0,1-47.582,50.082,212.843,212.843,0,0,1-72.063,27.875,450.059,450.059,0,0,1-90.682,8.585,394.625,394.625,0,0,1-81.028-6.8,268.582,268.582,0,0,1-49.306-14.667,85.931,85.931,0,0,1-31.828-21.464l23.446-98.017H912.39q-.689,6.439-1.379,17.529t-.69,17.529a82.345,82.345,0,0,0,2.069,17.886,61.411,61.411,0,0,0,6.551,17.171A35.453,35.453,0,0,0,931.7,392.821a39.34,39.34,0,0,0,20.688,5.008,46.389,46.389,0,0,0,24.481-6.439,62.359,62.359,0,0,0,17.929-16.1,72.467,72.467,0,0,0,11.034-21.464,75.717,75.717,0,0,0,3.793-23.252,46.27,46.27,0,0,0-7.241-26.472,61.826,61.826,0,0,0-19.654-18.244,140.329,140.329,0,0,0-28.618-12.878l-33.445-11.007q-16.6-5.2-34.8-12.41a117.641,117.641,0,0,1-33.446-20.033,103.622,103.622,0,0,1-25.17-32.553,111.21,111.21,0,0,1-10-50.439,128.2,128.2,0,0,1,22.412-77.049,174.852,174.852,0,0,1,56.547-50.439A252.379,252.379,0,0,1,971.032-8.465a390.138,390.138,0,0,1,77.235-8.255,259.81,259.81,0,0,1,83.1,11.8A156.036,156.036,0,0,1,1184.118,22.6L1158.6,122.05Zm404.793,0a162.627,162.627,0,0,0,2.069-29.333,159.99,159.99,0,0,0-1.379-21.106,72.865,72.865,0,0,0-4.827-18.6,28.287,28.287,0,0,0-10.344-12.878,31.468,31.468,0,0,0-17.93-4.65,46.2,46.2,0,0,0-22.757,5.724A68.763,68.763,0,0,0,1375.4,56.091a66.482,66.482,0,0,0-12.413,20.748,68.941,68.941,0,0,0-4.482,24.766,40.519,40.519,0,0,0,9.31,28.618,70.324,70.324,0,0,0,24.481,16.51,198.731,198.731,0,0,0,34.48,10.732q19.309,4.293,40,10.016a252.942,252.942,0,0,1,34.48,12.878,106.38,106.38,0,0,1,30.687,21.106,97.148,97.148,0,0,1,21.722,34.342,145.111,145.111,0,0,1,8.275,52.586,153.131,153.131,0,0,1-17.24,75.838,139.427,139.427,0,0,1-47.582,50.082,212.843,212.843,0,0,1-72.063,27.875,450.048,450.048,0,0,1-90.682,8.475,394.622,394.622,0,0,1-81.028-6.8,268.6,268.6,0,0,1-49.2-14.667,85.932,85.932,0,0,1-31.828-21.464l23.446-98.017H1317.13q-.69,6.439-1.379,17.529t-.69,17.529a82.346,82.346,0,0,0,2.069,17.886,61.4,61.4,0,0,0,6.551,17.171,35.452,35.452,0,0,0,12.758,12.878,39.341,39.341,0,0,0,20.688,5.008,46.39,46.39,0,0,0,24.481-6.439,62.356,62.356,0,0,0,17.929-16.1,72.465,72.465,0,0,0,11.034-21.463,75.71,75.71,0,0,0,3.793-23.252,46.27,46.27,0,0,0-7.241-26.472,61.822,61.822,0,0,0-19.653-18.244,140.328,140.328,0,0,0-28.618-12.878l-33.445-11.007q-16.55-5.008-34.825-12.163a117.674,117.674,0,0,1-33.392-20.115,103.622,103.622,0,0,1-25.17-32.553,111.211,111.211,0,0,1-10-50.439,128.2,128.2,0,0,1,22.412-77.049,174.854,174.854,0,0,1,56.547-50.439A252.378,252.378,0,0,1,1375.8-8.41a390.138,390.138,0,0,1,77.235-8.255,259.811,259.811,0,0,1,83.1,11.805,156.038,156.038,0,0,1,52.754,27.517L1563.369,122.1ZM1675.031-9.373h290.32L1954.318,45H1812.95l-26.894,130.928h117.921l-11.033,55.035H1775.023l-44.134,213.975H1581.936ZM2104.65,282.586q-3.448,15.74-5.517,27.187a120.978,120.978,0,0,0-2.069,21.464,50.978,50.978,0,0,0,16.816,40.01,73.082,73.082,0,0,0,50,15.025,81.306,81.306,0,0,0,39.652-8.585,74.94,74.94,0,0,0,25.515-22.894,120.116,120.116,0,0,0,15.914-33.021,374.787,374.787,0,0,0,10.025-39.185L2313.6-9.373h62.859l-60.1,293.335a316.5,316.5,0,0,1-20,64.391,158.725,158.725,0,0,1-37.583,52.943,172.988,172.988,0,0,1-63.1,36.13,298.709,298.709,0,0,1-95.854,13.236,204.686,204.686,0,0,1-117.231-26.829c-25.7-18.734-40.082-50.044-37.928-82.552a416.728,416.728,0,0,1,6.206-63.675q6.206-38.524,15.914-83.708L2008.849-9.291h156.485Z" transform="translate(-5114.5 -13964.327)" fill="#fef200"/>
  </g>
</svg>
