<svg xmlns="http://www.w3.org/2000/svg" width="47" height="47" viewBox="0 0 47 47">
  <g id="Group_88167" data-name="Group 88167" transform="translate(5003 561)">
    <circle id="Ellipse_19" data-name="Ellipse 19" cx="23.5" cy="23.5" r="23.5" transform="translate(-5003 -561)" fill="#fef200"/>
    <path id="Path_158497" data-name="Path 158497" d="M22.219-3.831A5.893,5.893,0,0,1,20.483.385,5.893,5.893,0,0,1,16.267,2.12H14.283V-.26h1.984A3.6,3.6,0,0,0,18.8-1.3a3.6,3.6,0,0,0,1.041-2.529v-.4H12.7V-13.75h9.522v9.919ZM19.838-6.608v-4.761H15.077v4.761Zm-17.457,0H7.142v-4.761H2.381ZM9.522-8.989v5.158A5.893,5.893,0,0,1,7.786.385,5.893,5.893,0,0,1,3.571,2.12H1.587V-.26H3.571A3.6,3.6,0,0,0,6.1-1.3,3.6,3.6,0,0,0,7.142-3.831v-.4H0V-13.75H9.522v4.761Z" transform="translate(-4991 -531.25)"/>
  </g>
</svg>
